<?xml version="1.0" encoding="utf-8"?>
<!-- Generator: Adobe Illustrator 25.2.2, SVG Export Plug-In . SVG Version: 6.00 Build 0)  -->
<svg version="1.1" id="Layer_1" xmlns="http://www.w3.org/2000/svg" xmlns:xlink="http://www.w3.org/1999/xlink" x="0px" y="0px"
	 viewBox="0 0 90 90" style="enable-background:new 0 0 90 90;" xml:space="preserve">
<style type="text/css">
	.st0{fill:#FFFFFF;}
	.st1{fill:#D7D7D7;}
	.st2{fill:#404040;}
	.st3{fill:#211F1F;}
	.st4{fill:#E01B22;}
	.st5{fill:#B81414;}
	.st6{fill:#ECECEC;}
</style>
<g id="XMLID_2666_">
	<g id="XMLID_2669_">
		<polyline class="st0" points="2.3,61.7 2.3,13.5 82.8,13.5 82.8,61.7 2.3,61.7 		"/>
	</g>
	<g id="XMLID_2668_">
		<polygon class="st0" points="52.9,70.9 32.4,70.9 34.4,61.7 50.1,61.7 		"/>
	</g>
	<g id="XMLID_2667_">
		<rect x="26.4" y="70.9" class="st0" width="32.3" height="4.4"/>
	</g>
</g>
<g id="XMLID_2665_">
	<path class="st1" d="M77.2,13.5v36.3c0,3.8-3,6.8-6.8,6.8H2.5v5.1H83V13.5L77.2,13.5L77.2,13.5z"/>
</g>
<g id="XMLID_2664_">
	<path class="st1" d="M50.1,61.7h-4.5l0.7,2.3c0.7,2.3-1.1,4.7-3.5,4.7H32.7l-0.5,2.1h20.5L50.1,61.7z"/>
</g>
<g id="XMLID_2663_">
	<path class="st2" d="M82.8,62.4H2.3c-0.4,0-0.8-0.4-0.8-0.8s0.4-0.8,0.8-0.8H82v-3.7c0-0.4,0.4-0.8,0.8-0.8s0.8,0.4,0.8,0.8v4.5
		C83.6,62.1,83.3,62.4,82.8,62.4z"/>
</g>
<g id="XMLID_2662_">
	<path class="st3" d="M82.8,54.3c-0.4,0-0.8-0.4-0.8-0.8v-1c0-0.4,0.4-0.8,0.8-0.8s0.8,0.4,0.8,0.8v1C83.6,53.9,83.3,54.3,82.8,54.3
		z"/>
</g>
<g id="XMLID_2661_">
	<path class="st2" d="M2.3,62.4c-0.4,0-0.8-0.4-0.8-0.8V13.4c0-0.4,0.4-0.8,0.8-0.8h80.5c0.4,0,0.8,0.4,0.8,0.8v34.8
		c0,0.4-0.4,0.8-0.8,0.8c-0.4,0-0.8-0.4-0.8-0.8V14.1H3.1v47.4C3.1,62.1,2.8,62.4,2.3,62.4z"/>
</g>
<g id="XMLID_2660_">
	<path class="st2" d="M52.9,71.7H32.4c-0.2,0-0.5-0.1-0.6-0.3c-0.2-0.2-0.2-0.4-0.2-0.7l2-9.3c0.1-0.4,0.4-0.6,0.8-0.6h15.8
		c0.4,0,0.7,0.2,0.8,0.6l2.7,9.3c0.1,0.2,0,0.5-0.1,0.7C53.3,71.6,53,71.7,52.9,71.7z M33.3,70.1h18.5l-2.2-7.7H35.1L33.3,70.1z"/>
</g>
<g id="XMLID_2659_">
	<path class="st2" d="M58.7,76.1H26.4c-0.4,0-0.8-0.4-0.8-0.8v-4.4c0-0.4,0.4-0.8,0.8-0.8h32.3c0.4,0,0.8,0.4,0.8,0.8v4.4
		C59.5,75.7,59.2,76.1,58.7,76.1z M27.2,74.5h30.7v-2.8H27.2V74.5z"/>
</g>
<g id="XMLID_114_">
	<path class="st0" d="M42.6,53c6.1,0,11.7-1.4,15.6-3.6c-0.8-1.9-2.1-3.5-4-4.5l-5.5-2.8c-1.1-0.6-1.8-1.8-1.6-2.9
		c0.2-1.3,0.7-2.5,1.4-3.7c0.6-1.1,1-2.5,1-4.1v-5.7c0-3.2-2.6-5.9-5.9-5.9h-2.1c-3.2,0-5.9,2.6-5.9,5.9v5.7c0,1.6,0.3,2.9,1.1,4
		c0.9,1.2,1.5,2.5,1.8,3.9c0.2,1.1-0.3,2.1-1.3,2.6l-5.9,2.9c-2,1-3.5,2.5-4.2,4.5C30.8,51.6,36.4,53,42.6,53z"/>
</g>
<g id="XMLID_113_">
	<path class="st1" d="M39.2,21.5c2.2,0,4.2,3,5.3,5c0.6,1.2,1.1,2.4,1.2,3.7c0.2,2.3-0.3,4.6-1.4,6.6c0,0.1-0.1,0.2-0.1,0.2
		c-0.7,1.2-1.2,2.4-1.4,3.7c-0.2,1.2,0.5,2.4,1.6,2.9l5.5,2.8c1.5,0.8,2.9,2.9,3.9,4.7c1.7-0.6,3.1-1.2,4.4-2
		c-0.8-1.9-2.1-3.5-4-4.5l-5.5-2.8c-1.1-0.6-1.8-1.8-1.6-2.9c0.2-1.3,0.7-2.5,1.4-3.7c0.6-1.1,1-2.5,1-4.1v-5.7
		c0-3.2-2.6-5.9-5.9-5.9h-2.1c-1.7,0-3.1,0.7-4.1,1.7h1.9L39.2,21.5L39.2,21.5z"/>
</g>
<g id="XMLID_111_">
	<path class="st1" d="M43.5,19.9h-2.1c-2.2,0-4.3,1.3-5.3,3.2c1-0.6,4.5-2.6,8.1,0c1.9,1.3,3,3.8,3.1,6l2,1.5v-4.7
		C49.3,22.5,46.7,19.9,43.5,19.9z"/>
</g>
<g id="XMLID_110_">
	<path class="st2" d="M42.6,53.7c-6.1,0-11.9-1.4-16-3.7c-0.3-0.2-0.5-0.6-0.3-1c0.9-2.1,2.4-3.9,4.6-4.9l5.9-2.9
		c0.7-0.3,1-1.1,0.9-1.8c-0.3-1.3-0.8-2.4-1.7-3.6c-0.8-1.1-1.2-2.6-1.2-4.4v-5.7c0-3.7,3-6.6,6.6-6.6h2.1c3.7,0,6.6,3,6.6,6.6v5.7
		c0,1.7-0.4,3.3-1.1,4.5c-0.7,1.2-1.1,2.2-1.3,3.4c-0.1,0.9,0.3,1.8,1.2,2.1l5.5,2.8c2,1.1,3.6,2.7,4.4,4.9c0.1,0.4,0,0.8-0.3,1
		C54.4,52.4,48.6,53.7,42.6,53.7z M28,49c3.8,2,9.1,3.2,14.6,3.2S53.3,51,57.1,49c-0.7-1.5-2-2.6-3.4-3.4l-5.5-2.8
		c-1.4-0.7-2.1-2.2-2-3.8c0.2-1.4,0.7-2.7,1.5-4c0.6-1,0.9-2.3,0.9-3.7v-5.7c0-2.8-2.2-5.1-5.1-5.1h-2.1c-2.8,0-5.1,2.2-5.1,5.1v5.7
		c0,1.5,0.3,2.7,0.9,3.5c1,1.4,1.6,2.7,2,4.2c0.3,1.4-0.4,2.8-1.7,3.5l-5.9,2.9C29.9,46.3,28.7,47.5,28,49z"/>
</g>
<g id="XMLID_109_">
	<path class="st2" d="M42.6,53.7c-6.1,0-11.9-1.4-16-3.7c-0.3-0.2-0.5-0.6-0.3-1c0.9-2.1,2.4-3.9,4.6-4.9l5.9-2.9
		c0.3-0.2,0.8-0.3,1.1-0.1c0.2,0.2,5.3,3.9,9.8-0.1c0.3-0.3,0.8-0.3,1.1,0c0.2,0.1,0.3,0.3,0.5,0.3l5.5,2.8c2,1.1,3.6,2.7,4.4,4.9
		c0.1,0.4,0,0.8-0.3,1C54.4,52.4,48.6,53.7,42.6,53.7z M28,49c3.8,2,9.1,3.2,14.6,3.2S53.3,51,57.1,49c-0.7-1.5-2-2.6-3.4-3.4
		l-5.5-2.8c-0.1,0-0.2-0.1-0.3-0.2c-4.5,3.5-9.3,1-10.7,0l-5.7,2.8C29.9,46.3,28.7,47.5,28,49z"/>
</g>
<g id="XMLID_105_">
	<line class="st2" x1="43" y1="43.7" x2="43" y2="48.4"/>
	<path class="st2" d="M43,49.1c-0.4,0-0.8-0.4-0.8-0.8v-4.7c0-0.4,0.4-0.8,0.8-0.8s0.8,0.4,0.8,0.8v4.7C43.8,48.8,43.5,49.1,43,49.1
		z"/>
</g>
<g id="XMLID_24_">
	<ellipse class="st0" cx="67.4" cy="57" rx="20.2" ry="20.4"/>
</g>
<g id="XMLID_23_">
	<circle class="st4" cx="69.7" cy="57.4" r="17.9"/>
</g>
<g id="XMLID_22_">
	<path class="st5" d="M69.7,39.6c-6.1,0-11.4,3-14.6,7.6c3-2.6,7-4.2,11.3-4.2c9.7,0,17.5,7.8,17.5,17.5c0,4.9-2,9.3-5.2,12.4
		c5.3-3.1,8.9-8.9,8.9-15.4C87.6,47.5,79.6,39.6,69.7,39.6z"/>
</g>
<g id="XMLID_21_">
	<path class="st2" d="M69.6,76.1c-2.8,0-5.8-0.7-8.4-2C52,69.4,48.4,58.2,53,49s15.9-12.8,25.1-8.2c2.7,1.4,5.1,3.4,6.8,6
		c0.3,0.4,0.2,0.9-0.2,1.1s-0.9,0.2-1.1-0.2c-1.6-2.3-3.8-4.2-6.2-5.5c-8.4-4.3-18.7-0.9-23,7.5c-2,4.1-2.4,8.7-1,13.1
		c1.4,4.3,4.4,7.9,8.5,10c8.4,4.3,18.7,0.9,23-7.5c1.3-2.4,2-5.3,1.9-8c0-0.7-0.1-1.3-0.1-2c-0.1-0.4,0.3-0.8,0.7-0.9
		c0.4,0,0.8,0.3,0.9,0.7c0.1,0.7,0.1,1.4,0.2,2c0.1,3-0.7,6.1-2,8.8C83,72.3,76.5,76.1,69.6,76.1z"/>
</g>
<g id="XMLID_19_">
	<g id="XMLID_20_">
		<path class="st6" d="M65,66.2c-0.6,0-1.1-0.2-1.5-0.7l-6.6-7.4c-0.7-0.8-0.7-2,0.2-2.8c0.8-0.7,2-0.7,2.8,0.2l5.4,6L79.8,49
			c0.8-0.7,2-0.6,2.7,0.2s0.6,2-0.2,2.7l-16,13.8C65.9,66,65.4,66.2,65,66.2z"/>
	</g>
</g>
<g id="XMLID_18_">
	<path class="st2" d="M86,51c-0.3,0-0.6-0.2-0.7-0.5c-0.1-0.3-0.2-0.5-0.4-0.8c-0.2-0.4,0-0.9,0.4-1.1s0.9,0,1.1,0.4
		c0.1,0.3,0.3,0.6,0.4,0.9c0.2,0.4,0,0.9-0.4,1C86.2,51,86.1,51,86,51z"/>
</g>
<g id="XMLID_17_">
	<path class="st0" d="M57.1,58.4c0.1-0.1,0.1-0.2,0.2-0.2c0.8-0.7,2-0.7,2.8,0.2l5.4,6L80,51.9c0.7-0.6,1.8-0.6,2.4-0.1
		c0.6-0.7,0.7-1.9,0-2.5c-0.7-0.8-2-0.9-2.7-0.2L65.2,61.6l-5.4-6c-0.7-0.8-2-0.9-2.8-0.2c-0.8,0.7-0.9,2-0.2,2.8L57.1,58.4z"/>
</g>
<g id="XMLID_2_">
	<g id="XMLID_16_">
		<path class="st2" d="M65,67c-0.8,0-1.6-0.3-2-0.9l-6.6-7.4c-0.5-0.6-0.8-1.3-0.7-2c0-0.7,0.4-1.4,0.9-1.9c0.6-0.5,1.3-0.8,2-0.7
			c0.7,0,1.4,0.4,1.9,0.9l4.8,5.4l14-12c1.2-1,2.9-0.9,3.9,0.3c1,1.2,0.9,2.9-0.3,3.9l-6.3,5.5c-0.3,0.3-0.8,0.3-1.1-0.1
			c-0.3-0.3-0.2-0.8,0.1-1.1l6.3-5.5c0.5-0.4,0.6-1.2,0.1-1.7c-0.4-0.5-1.2-0.6-1.7-0.1L65.8,62.1c-0.3,0.3-0.8,0.2-1.1-0.1l-5.4-6
			c-0.2-0.2-0.5-0.4-0.8-0.4c-0.4,0-0.6,0.1-0.9,0.3c-0.3,0.2-0.4,0.5-0.4,0.8s0.1,0.6,0.3,0.9l6.6,7.4c0.4,0.5,1.2,0.5,1.7,0.1
			l6.6-5.7c0.3-0.3,0.8-0.2,1.1,0.1c0.3,0.3,0.2,0.8-0.1,1.1l-6.6,5.7C66.3,66.8,65.6,67,65,67z"/>
	</g>
</g>
</svg>
