<?xml version="1.0" encoding="utf-8"?>
<!-- Generator: Adobe Illustrator 25.2.2, SVG Export Plug-In . SVG Version: 6.00 Build 0)  -->
<svg version="1.1" id="Layer_1" xmlns="http://www.w3.org/2000/svg" xmlns:xlink="http://www.w3.org/1999/xlink" x="0px" y="0px"
	 viewBox="0 0 90 90" style="enable-background:new 0 0 90 90;" xml:space="preserve">
<style type="text/css">
	.st0{fill:#E01B22;}
	.st1{fill:#B81414;}
	.st2{fill:#404040;}
</style>
<path class="st0" d="M43.9,2.9c-14.4,0.5-26.3,12.3-27,26.7c0,0.5,0,1.1,0,1.6c0,4.7,1.5,9.3,3.8,13.3l9.7,16.9L46,87.2l15.8-27.8
	l8.3-16.1c0.8-1.5,1.4-3,1.9-4.6c0.7-2.4,1.1-5,1.1-7.6C73.1,15.1,59.9,2.3,43.9,2.9z M45,46.7c-9.1,0-16.5-7.4-16.5-16.5
	S35.9,13.7,45,13.7s16.5,7.4,16.5,16.5S54.1,46.7,45,46.7z"/>
<g id="XMLID_2449_">
	<g id="XMLID_2450_">
		<path class="st1" d="M43.9,2.9C38.2,3.1,33,5.1,28.6,8.2c2.8-1.1,5.7-1.7,8.8-1.8c16-0.6,29.2,12.2,29.2,28.1
			c0,2.6-0.4,5.2-1.1,7.6c-0.5,1.6-1.1,3.1-1.9,4.6l-8.3,16.1L43.7,83.3l2.3,3.8l15.8-27.8l8.3-16.1c0.8-1.5,1.4-3,1.9-4.6
			c0.7-2.4,1.1-5,1.1-7.6C73.1,15.1,59.9,2.3,43.9,2.9z"/>
	</g>
</g>
<g id="XMLID_2439_">
	<g id="XMLID_2445_">
		<path class="st2" d="M45,48.2c-10,0-18.1-8.1-18.1-18.1S35,12,45,12s18.1,8.1,18.1,18.1C63,40.1,54.9,48.2,45,48.2z M45,15.2
			c-8.3,0-15,6.7-15,15s6.7,15,15,15s15-6.7,15-15C59.9,21.9,53.1,15.2,45,15.2z"/>
	</g>
	<g id="XMLID_2443_">
		<path class="st2" d="M46,88.7c-0.5,0-1-0.3-1.3-0.7L29.1,62.2l-9.7-16.9c-2.6-4.5-4-9.4-4-14.1c0-0.5,0-1.1,0-1.7
			C16.2,14.3,28.7,1.9,43.9,1.3C52.1,1,59.8,3.9,65.6,9.6c5.9,5.6,9.1,13.2,9.1,21.4c0,2.7-0.4,5.4-1.1,8.1c-0.4,1.5-1.1,3.1-2,4.9
			l-8.5,16.4c-0.4,0.8-1.3,1.1-2.1,0.7s-1.1-1.3-0.7-2.1l8.5-16.4c0.8-1.6,1.4-3,1.8-4.3c0.7-2.4,1-4.8,1-7.2
			c0-7.3-2.9-14.1-8.1-19.1c-5.2-5-12.1-7.7-19.4-7.4C30.5,5.1,19.3,16.2,18.6,29.8c0,0.5,0,1,0,1.5c0,4.2,1.3,8.5,3.6,12.6
			l9.7,16.9l14.2,23.5L54.3,70c0.4-0.8,1.4-1,2.1-0.6c0.7,0.4,1,1.4,0.6,2.1l-9.5,16.6C47.1,88.4,46.5,88.7,46,88.7z"/>
	</g>
	<g id="XMLID_2441_">
		<path class="st2" d="M58.1,67.3c-0.3,0-0.5-0.1-0.8-0.2c-0.7-0.4-1-1.4-0.6-2.1l1.2-2.1c0.4-0.7,1.4-1,2.1-0.6s1,1.4,0.6,2.1
			l-1.2,2.1C59.1,67,58.6,67.3,58.1,67.3z"/>
	</g>
	<g id="XMLID_2440_">
		<path class="st2" d="M45,48.2c-10,0-18.1-8.1-18.1-18.1S35,12,45,12s18.1,8.1,18.1,18.1C63,40.1,54.9,48.2,45,48.2z M45,15.2
			c-8.3,0-15,6.7-15,15s6.7,15,15,15s15-6.7,15-15C59.9,21.9,53.1,15.2,45,15.2z"/>
	</g>
</g>
</svg>
