<?xml version="1.0" encoding="utf-8"?>
<!-- Generator: Adobe Illustrator 25.2.2, SVG Export Plug-In . SVG Version: 6.00 Build 0)  -->
<svg version="1.1" id="Layer_1" xmlns="http://www.w3.org/2000/svg" xmlns:xlink="http://www.w3.org/1999/xlink" x="0px" y="0px"
	 viewBox="0 0 25 25" style="enable-background:new 0 0 25 25;" xml:space="preserve">
<style type="text/css">
	.st0{fill:#231F20;}
	.st1{fill:#E01A2A;}
	.st2{fill:#23B257;}
	.st3{fill:none;stroke:#231F20;stroke-width:1.2;stroke-miterlimit:10;}
</style>
<g>
	<path class="st0" d="M6.7,16.8L6.7,16.8L6.7,16.8L6.7,16.8L6.7,16.8c-0.2,0-0.3-0.1-0.3-0.2c0-0.1,0.1-0.2,0.3-0.2
		c0.1,0,0.2,0,0.3,0.1c0.1,0,0.2,0,0.2-0.1c0,0,0-0.1,0-0.1c0,0-0.1-0.1-0.1-0.1c-0.1,0-0.3-0.1-0.4-0.1c-0.4,0-0.7,0.2-0.7,0.5
		c0,0.4,0.4,0.4,0.6,0.5c0.2,0,0.3,0.1,0.3,0.2c0,0,0,0.1-0.3,0.1c-0.1,0-0.3,0-0.4-0.1c-0.1,0-0.2,0-0.2,0.1l0,0c0,0,0,0.1,0,0.1
		c0,0,0,0.1,0.1,0.1c0.1,0.1,0.3,0.1,0.5,0.1c0.4,0,0.7-0.2,0.7-0.5C7.3,16.9,6.9,16.9,6.7,16.8z"/>
	<path class="st0" d="M8.4,16.2c-0.2,0-0.4,0.1-0.5,0.2v0c0-0.1-0.1-0.1-0.1-0.1H7.7c-0.1,0-0.1,0.1-0.1,0.1v1.9
		c0,0.1,0.1,0.1,0.1,0.1h0.1c0.1,0,0.1-0.1,0.1-0.1v-0.6c0.1,0.1,0.3,0.2,0.5,0.2c0.5,0,0.8-0.3,0.8-0.8C9.2,16.5,8.9,16.2,8.4,16.2
		z M8.9,17c0,0.3-0.2,0.5-0.4,0.5C8.1,17.4,8,17.3,8,17c0-0.3,0.2-0.5,0.4-0.5C8.7,16.5,8.9,16.7,8.9,17z"/>
	<path class="st0" d="M13.5,16.2L13.5,16.2c-0.1,0-0.1,0-0.2,0.1l-0.4,1l-0.4-1c0-0.1-0.1-0.1-0.2-0.1h0c-0.1,0-0.1,0-0.1,0.1
		c0,0,0,0.1,0,0.2l0.6,1.3c0,0,0,0,0,0.1l0,0.1C12.6,18,12.5,18,12.4,18c-0.1,0-0.1,0-0.2,0c-0.1,0-0.2,0-0.2,0.1c0,0,0,0.1,0,0.1
		c0,0,0,0.1,0.1,0.1c0.1,0,0.2,0.1,0.3,0.1c0.3,0,0.5-0.1,0.6-0.4l0.7-1.5c0-0.1,0-0.1,0-0.2C13.6,16.2,13.6,16.2,13.5,16.2z"/>
	<path class="st0" d="M9.7,16.2c-0.1,0-0.2,0.1-0.2,0.2v1.2c0,0.1,0.1,0.2,0.2,0.2c0.1,0,0.2-0.1,0.2-0.2v-1.2
		C9.9,16.2,9.8,16.2,9.7,16.2z"/>
	<path class="st0" d="M16,16.2c-0.2,0-0.4,0.1-0.6,0.2c-0.1-0.2-0.3-0.2-0.5-0.2c-0.2,0-0.3,0.1-0.5,0.2v0c0-0.1-0.1-0.1-0.1-0.1
		h-0.1c-0.1,0-0.1,0.1-0.1,0.1v1.4c0,0.1,0.1,0.1,0.1,0.1h0.1c0.1,0,0.1-0.1,0.1-0.1V17c0-0.3,0.1-0.4,0.4-0.4
		c0.2,0,0.3,0.1,0.3,0.4v0.8c0,0.1,0.1,0.1,0.1,0.1h0.1c0.1,0,0.1-0.1,0.1-0.1V17c0-0.3,0.1-0.4,0.4-0.4c0.2,0,0.3,0.1,0.3,0.4v0.8
		c0,0.1,0.1,0.1,0.1,0.1h0.1c0.1,0,0.1-0.1,0.1-0.1v-0.8C16.7,16.4,16.5,16.2,16,16.2z"/>
	<path class="st0" d="M17.2,16.2c-0.1,0-0.2,0.1-0.2,0.2v1.2c0,0.1,0.1,0.2,0.2,0.2c0.1,0,0.2-0.1,0.2-0.2v-1.2
		C17.4,16.3,17.3,16.2,17.2,16.2z"/>
	<path class="st0" d="M19,17.5L18.6,17c0,0,0-0.1,0-0.1l0.4-0.5c0-0.1,0-0.1,0-0.2c0-0.1-0.1-0.1-0.2-0.1c-0.1,0-0.1,0-0.1,0.1
		l-0.3,0.4L18,16.3c0,0-0.1-0.1-0.1-0.1h0c-0.1,0-0.1,0-0.2,0.1c0,0.1,0,0.1,0,0.2l0.4,0.5c0,0,0,0.1,0,0.1l-0.4,0.5
		c0,0.1,0,0.1,0,0.2c0,0.1,0.1,0.1,0.2,0.1h0c0.1,0,0.1,0,0.1-0.1l0.4-0.5l0.4,0.5c0,0,0.1,0.1,0.1,0.1h0c0.1,0,0.1,0,0.2-0.1
		C19,17.6,19,17.6,19,17.5z"/>
	<path class="st1" d="M11.4,17.5c-0.2,0-0.5-0.1-0.6-0.4c0-0.1,0-0.3,0.1-0.4c0.1-0.1,0.2-0.1,0.3-0.2c0.2-0.1,0.2-0.3,0.1-0.4
		c-0.1,0-0.1-0.1-0.2-0.1c-0.2,0-0.4,0.1-0.6,0.4c-0.3,0.4-0.3,1,0.2,1.3c0.3,0.2,0.6,0.2,0.9,0.1c0.2-0.1,0.3-0.1,0.4-0.3
		c0.1-0.1,0.1-0.3,0.1-0.5c-0.1-0.2-0.3-0.3-0.5-0.2c-0.1,0-0.1,0.1-0.1,0.3c0,0,0-0.1,0.1-0.2c0.1-0.1,0.3,0,0.3,0.1
		C11.9,17.2,11.8,17.4,11.4,17.5z"/>
	<path class="st2" d="M11.6,15.9c0.2-0.1,0.4-0.3,0.4-0.7c0,0,0.1,0.4-0.4,0.9c0,0-0.1,0.1-0.1,0.2c-0.1,0.1-0.2,0.2-0.2,0.2
		l0.1-0.2l0-0.1c0-0.1,0-0.1-0.1-0.2c0,0,0,0-0.1,0l-0.2-0.1c0,0,0.2,0,0.4,0C11.4,16,11.5,16,11.6,15.9z"/>
	<path class="st1" d="M9.9,17.6C9.9,17.6,9.9,17.6,9.9,17.6l0-1.3c0-0.1,0-0.1-0.1-0.2c-0.1,0.2-0.1,0.4-0.1,0.6
		C9.7,17.1,9.8,17.4,9.9,17.6z"/>
	<path class="st1" d="M12.3,16.2L12.3,16.2c-0.1,0-0.1,0-0.2,0.1c0,0,0,0.1,0,0.2l0.4,0.9c0.1-0.2,0.1-0.3,0.1-0.5
		c0-0.1,0-0.2,0-0.3l-0.1-0.2C12.5,16.2,12.4,16.2,12.3,16.2z"/>
	<path class="st1" d="M18.6,16.9l0.4-0.5c0-0.1,0-0.1,0-0.2c0-0.1-0.1-0.1-0.2-0.1c0,0-0.1,0-0.1,0C18.7,16.4,18.6,16.6,18.6,16.9
		C18.6,16.9,18.6,16.9,18.6,16.9z"/>
</g>
<path class="st3" d="M5.7,8h13.6c0.6,0,1.1,0.4,1.2,1l1.7,13.8c0.1,0.7-0.5,1.3-1.2,1.3H4c-0.7,0-1.3-0.6-1.2-1.3L4.6,9.1
	C4.6,8.5,5.1,8,5.7,8z"/>
<path class="st3" d="M8.7,10.7V4.5c0-2,1.6-3.6,3.6-3.6h0c2,0,3.6,1.6,3.6,3.6v6.1"/>
<circle class="st0" cx="8.7" cy="11.2" r="1.2"/>
<circle class="st0" cx="16" cy="11.2" r="1.2"/>
</svg>
