<?xml version="1.0" encoding="utf-8"?>
<!-- Generator: Adobe Illustrator 25.2.2, SVG Export Plug-In . SVG Version: 6.00 Build 0)  -->
<svg version="1.1" id="Layer_1" xmlns="http://www.w3.org/2000/svg" xmlns:xlink="http://www.w3.org/1999/xlink" x="0px" y="0px"
	 viewBox="0 0 90 90" style="enable-background:new 0 0 90 90;" xml:space="preserve">
<style type="text/css">
	.st0{fill:#D7D7D7;}
	.st1{fill:#FFFFFF;}
	.st2{fill:#404040;}
	.st3{fill:#323031;}
	.st4{fill:#B81414;}
	.st5{fill:#E01B22;}
</style>
<g id="XMLID_70_">
	<polygon class="st0" points="52.4,35.9 52.4,38 24.6,38 24.6,40.1 55.7,40.1 55.7,35.9 	"/>
</g>
<g id="XMLID_66_">
	<g id="XMLID_69_">
		<polyline class="st1" points="1.4,60.9 1.4,14.6 78.9,14.6 78.9,60.9 1.4,60.9 		"/>
	</g>
	<g id="XMLID_68_">
		<polygon class="st1" points="50,69.8 30.3,69.8 32.3,60.9 47.4,60.9 		"/>
	</g>
	<g id="XMLID_67_">
		<rect x="24.6" y="69.8" class="st1" width="31.1" height="4.2"/>
	</g>
</g>
<g id="XMLID_65_">
	<path class="st0" d="M73.4,14.6v34.9c0,3.6-3,6.6-6.6,6.6H1.5V61h77.4V14.7L73.4,14.6L73.4,14.6z"/>
</g>
<g id="XMLID_64_">
	<path class="st0" d="M47.4,60.9h-4.3l0.7,2.3c0.7,2.2-1,4.5-3.4,4.5h-9.7l-0.5,2.1h19.7L47.4,60.9z"/>
</g>
<g id="XMLID_63_">
	<path class="st2" d="M78.9,61.7H1.5c-0.4,0-0.7-0.3-0.7-0.7s0.3-0.7,0.7-0.7h76.7v-3.6c0-0.4,0.3-0.7,0.7-0.7s0.7,0.3,0.7,0.7v4.4
		C79.6,61.3,79.3,61.7,78.9,61.7z"/>
</g>
<g id="XMLID_62_">
	<path class="st3" d="M78.9,53.8c-0.4,0-0.7-0.3-0.7-0.7v-1c0-0.4,0.3-0.7,0.7-0.7s0.7,0.3,0.7,0.7v1C79.6,53.5,79.3,53.8,78.9,53.8
		z"/>
</g>
<g id="XMLID_61_">
	<path class="st2" d="M1.4,61.7c-0.4,0-0.7-0.3-0.7-0.7V14.7C0.7,14.3,1,14,1.4,14h77.4c0.4,0,0.7,0.3,0.7,0.7v33.5
		c0,0.4-0.3,0.7-0.7,0.7s-0.7-0.3-0.7-0.7V15.5H2.2v45.4C2.2,61.3,1.9,61.7,1.4,61.7z"/>
</g>
<g id="XMLID_60_">
	<path class="st2" d="M50,70.5H30.3c-0.2,0-0.4-0.1-0.6-0.3c-0.1-0.2-0.2-0.4-0.1-0.6l2-8.9c0.1-0.3,0.4-0.6,0.7-0.6h15.2
		c0.3,0,0.6,0.2,0.7,0.5l2.6,8.9c0.1,0.2,0,0.5-0.1,0.7C50.5,70.4,50.2,70.5,50,70.5z M31.2,69H49l-2.2-7.4h-14L31.2,69z"/>
</g>
<g id="XMLID_59_">
	<path class="st2" d="M55.7,74.7H24.6c-0.4,0-0.7-0.3-0.7-0.7v-4.2c0-0.4,0.3-0.7,0.7-0.7h31.1c0.4,0,0.7,0.3,0.7,0.7V74
		C56.4,74.4,56.1,74.7,55.7,74.7z M25.4,73.2H55v-2.7H25.4V73.2z"/>
</g>
<g id="XMLID_44_">
	<g id="XMLID_56_">
		<path class="st2" d="M28.2,23.2h0.7v6h3.7v0.6h-4.4V23.2z"/>
	</g>
	<g id="XMLID_53_">
		<path class="st2" d="M32.8,27.3c0-1.5,1.1-2.5,2.5-2.5c1.5,0,2.5,1,2.5,2.5s-1.1,2.5-2.5,2.5S32.8,28.8,32.8,27.3z M37.2,27.3
			c0-1.2-0.8-1.9-1.8-1.9c-1.1,0-1.8,0.8-1.8,1.9c0,1.2,0.8,1.9,1.8,1.9S37.2,28.5,37.2,27.3z"/>
	</g>
	<g id="XMLID_50_">
		<path class="st2" d="M43.6,24.8v4.4c0,1.7-0.8,2.5-2.5,2.5c-0.9,0-1.8-0.3-2.3-0.8l0.3-0.5c0.5,0.4,1.2,0.7,2,0.7
			c1.3,0,1.8-0.6,1.8-1.8v-0.6c-0.4,0.6-1.1,1-1.9,1c-1.4,0-2.5-1-2.5-2.4s1.1-2.4,2.5-2.4c0.8,0,1.5,0.3,2,1v-1h0.6L43.6,24.8
			L43.6,24.8z M42.9,27.2c0-1.1-0.8-1.8-1.9-1.8c-1.1,0-1.9,0.7-1.9,1.8S39.9,29,41,29C42.1,29,42.9,28.3,42.9,27.2z"/>
	</g>
	<g id="XMLID_47_">
		<path class="st2" d="M45.1,23.3c0-0.3,0.2-0.5,0.5-0.5s0.5,0.2,0.5,0.5s-0.2,0.5-0.5,0.5C45.3,23.7,45.1,23.5,45.1,23.3z
			 M45.2,24.8h0.7v5h-0.7V24.8z"/>
	</g>
	<g id="XMLID_45_">
		<path class="st2" d="M52.1,26.9v2.9h-0.7V27c0-1-0.5-1.6-1.5-1.6c-1.1,0-1.7,0.7-1.7,1.8v2.6h-0.7v-5h0.6v0.9c0.4-0.6,1-1,1.9-1
			C51.2,24.8,52.1,25.5,52.1,26.9z"/>
	</g>
</g>
<g id="XMLID_43_">
	<path class="st2" d="M49.8,41h-1.9c-0.4,0-0.7-0.3-0.7-0.7c0-0.4,0.3-0.7,0.7-0.7h1.9c0.4,0,0.7,0.3,0.7,0.7S50.2,41,49.8,41z"/>
</g>
<g id="XMLID_42_">
	<path class="st2" d="M54.7,41h-2.6c-0.4,0-0.7-0.3-0.7-0.7c0-0.4,0.3-0.7,0.7-0.7H54v-4.1H26.5v4.1h18.8c0.4,0,0.7,0.3,0.7,0.7
		S45.7,41,45.3,41H25.7c-0.4,0-0.7-0.3-0.7-0.7v-5.6c0-0.4,0.3-0.7,0.7-0.7h29c0.4,0,0.7,0.3,0.7,0.7v5.6C55.4,40.7,55.1,41,54.7,41
		z"/>
</g>
<g id="XMLID_41_">
	<path class="st2" d="M54.7,51.1h-29c-0.4,0-0.7-0.3-0.7-0.7v-5.6c0-0.4,0.3-0.7,0.7-0.7h29c0.4,0,0.7,0.3,0.7,0.7v5.6
		C55.4,50.7,55.1,51.1,54.7,51.1z M26.4,49.6h27.5v-4.1H26.4V49.6z"/>
</g>
<g id="XMLID_29_">
	<path class="st1" d="M83.3,48.7v-3c0-5.9-4.9-10.7-11-10.7s-11,4.8-11,10.7v3c-3.3,0.6-5.8,3.4-5.8,6.8v13.6c0,3.8,3.2,6.9,7.1,6.9
		h19.6c3.9,0,7.1-3.1,7.1-6.9V55.5C89.1,52.1,86.6,49.3,83.3,48.7z"/>
</g>
<g id="XMLID_74_">
	<path class="st4" d="M85.1,75.2H61.2c-1.2,0-2.2-1-2.2-2.2V53.4c0-1.4,1.1-2.5,2.5-2.5h23.6c1.8,0,3.3,1.5,3.3,3.3v17.7
		C88.4,73.8,86.9,75.2,85.1,75.2z"/>
</g>
<g id="XMLID_73_">
	<path class="st2" d="M83,51.6c-0.4,0-0.7-0.3-0.7-0.7v-3.4c0-4.7-3.8-8.6-8.6-8.6s-8.6,3.8-8.6,8.6v3.4c0,0.4-0.3,0.7-0.7,0.7
		s-0.7-0.3-0.7-0.7v-3.4c0-5.6,4.5-10.1,10.1-10.1s10.1,4.5,10.1,10.1v3.4C83.7,51.3,83.4,51.6,83,51.6z"/>
</g>
<g id="XMLID_30_">
	<path class="st5" d="M83.9,75.2h-23c-1.1,0-1.9-0.9-1.9-1.9V55c0-1.1,0.9-1.9,1.9-1.9h22.5c1.3,0,2.4,1.1,2.4,2.4v17.8
		C85.8,74.4,84.9,75.2,83.9,75.2z"/>
</g>
<g id="XMLID_26_">
	<path class="st2" d="M85.6,76H61.8c-1.9,0-3.5-1.6-3.5-3.5V53.8c0-1.9,1.6-3.5,3.5-3.5h23.8c1.9,0,3.5,1.6,3.5,3.5v18.7
		C89.1,74.4,87.5,76,85.6,76z M61.8,51.7c-1.1,0-2,0.9-2,2v18.7c0,1.1,0.9,2,2,2h23.8c1.1,0,2-0.9,2-2V53.7c0-1.1-0.9-2-2-2H61.8z"
		/>
</g>
<path class="st1" d="M76.3,63.6c0-1.5-1.2-2.6-2.6-2.6c-1.4,0-2.6,1.2-2.6,2.6c0,1.1,0.7,2.1,1.7,2.5v5.8h1.8v-5.8
	C75.6,65.7,76.3,64.7,76.3,63.6z"/>
<path class="st2" d="M74.6,72.6h-1.8c-0.4,0-0.7-0.3-0.7-0.7v-5.3c-1-0.6-1.7-1.7-1.7-2.9c0-1.9,1.5-3.4,3.4-3.4s3.4,1.5,3.4,3.4
	c0,1.2-0.7,2.3-1.7,2.9v5.3C75.3,72.3,75,72.6,74.6,72.6z M73.5,71.1h0.3V66c0-0.3,0.2-0.6,0.5-0.7c0.7-0.3,1.2-1,1.2-1.8
	c0-1-0.8-1.9-1.9-1.9c-1,0-1.9,0.8-1.9,1.9c0,0.8,0.5,1.5,1.2,1.8c0.3,0.1,0.5,0.4,0.5,0.7L73.5,71.1L73.5,71.1z"/>
</svg>
