<?xml version="1.0" encoding="utf-8"?>
<!-- Generator: Adobe Illustrator 25.2.2, SVG Export Plug-In . SVG Version: 6.00 Build 0)  -->
<svg version="1.1" id="Layer_1" xmlns="http://www.w3.org/2000/svg" xmlns:xlink="http://www.w3.org/1999/xlink" x="0px" y="0px"
	 viewBox="0 0 25 25" style="enable-background:new 0 0 25 25;" xml:space="preserve">
<style type="text/css">
	.st0{fill:#E01B22;}
	.st1{fill:#404040;}
</style>
<path class="st0" d="M12.8,11l2,0.5l0.8-1.8l0.9,1.1l2.4,0.6c0,0,0.3-0.1,0.5-0.6c0.1-0.5-0.5-0.5-0.5-0.5L17.4,10
	c0,0-0.8-1.1-0.9-1.5c-0.2-0.4-0.7-1.2-0.7-1.2l-0.9-0.2c0,0-1.1,0.1-1.5,1.5S12.8,11,12.8,11z"/>
<path class="st0" d="M14.2,5.8c0,0,0-2,2-1.3c0,0,0.6,0.3,0.8,0.8L14.2,5.8z"/>
<rect x="6.5" y="8.1" class="st0" width="5.1" height="5.1"/>
<g>
	<path class="st1" d="M23.8,16.7l0.4-0.3c0.1,0,0.1-0.1,0.1-0.2s0-0.2-0.1-0.2c-0.7-0.7-1.8-0.8-2.5-0.8c0.1-0.1,0.1-0.2,0-0.3
		L20.5,12h0.6c0.1,0,0.2-0.1,0.3-0.2l0.2-2c0-0.1-0.1-0.3-0.2-0.3c-1.6-0.2-2.6,0.2-3,0.5l-0.7-0.1c-0.2,0-0.3-0.1-0.3-0.3
		c-0.1-0.3-0.4-0.7-0.6-1.4c-0.1-0.4-0.3-0.6-0.4-0.8c0.6-0.3,1-0.9,1-1.5c0-0.1,0-0.2,0-0.2L18,5.6c0.1,0,0.2-0.2,0.2-0.3
		c0-0.1-0.2-0.2-0.3-0.2L17.1,5c-0.3-0.6-0.8-0.9-1.5-0.9c-0.9,0-1.7,0.7-1.7,1.7l0,0l0,0c0,0.5,0.2,0.9,0.5,1.2
		c-0.4,0.2-0.7,0.6-0.9,1c-0.5,1.3-0.9,2.7-1,2.9c-0.1,0.1-0.4,1-0.2,1.7c0,0.1,0.1,0.3,0.2,0.4h-0.7V8.2c0-0.1-0.1-0.3-0.3-0.3h-2
		h-1h-2C6.4,7.9,6.2,8,6.2,8.2v2.7H5.1c-0.1,0-0.3,0.1-0.3,0.3s0.1,0.3,0.3,0.3h1.1v0.4H2.5c-0.1,0-0.3,0.1-0.3,0.3
		c0,0.1,0.1,0.3,0.3,0.3h3.7v0.9c0,0.1,0.1,0.3,0.3,0.3h2.2l0.2,1c0,0.1,0.1,0.2,0.3,0.2h0.3l-0.2,0.6c-0.6,0.2-1.1,0.6-1.4,1h-4
		c-0.1,0-0.3,0.1-0.3,0.3s0.1,0.3,0.3,0.3h3.6c-0.1,0.2-0.2,0.3-0.2,0.5H2.7c-0.1,0-0.3,0.1-0.3,0.3s0.1,0.3,0.3,0.3H7
		c-0.1,0.4-0.2,0.6-0.2,0.7s0,0.1,0.1,0.2c0,0.1,0.1,0.1,0.2,0.1h1c0.1,1.2,1.1,2.1,2.3,2.1s2.2-0.9,2.3-2.1h0.6l0,0l0,0h5.1
		c0.1,0,0.1,0,0.2-0.1l0.2-0.3c0,0.4,0.2,0.8,0.2,0.8c0,0.1,0.1,0.1,0.2,0.1h0.1h0.1l0.5-0.3c0.3,1.1,1.2,1.9,2.3,1.9
		c1.3,0,2.4-1.1,2.4-2.4C24.7,17.8,24.4,17.1,23.8,16.7z M16.8,5.8c0,0.6-0.5,1.2-1.2,1.2c-0.6,0-1-0.4-1.1-0.9l2.3-0.4
		C16.8,5.7,16.8,5.7,16.8,5.8z M15.6,4.6c0.4,0,0.7,0.2,1,0.5l-2.1,0.3C14.7,5,15.1,4.6,15.6,4.6z M14,8.2c0.2-0.5,0.6-0.8,1-0.9
		c0.2,0.1,0.4,0.1,0.6,0.1l0,0c0.1,0,0.3,0.2,0.5,0.9c0.3,0.7,0.5,1.1,0.6,1.4c0.1,0.3,0.4,0.5,0.7,0.5l0.8,0.2l0,0l0.4,0.1
		c0.2,0,0.3,0.1,0.4,0.2c0.1,0.1,0.1,0.1,0.1,0.2c0,0.1-0.1,0.2-0.2,0.2c-0.2,0.1-0.4,0-0.5,0l-1.7-0.3c-0.2,0-0.3-0.1-0.4-0.3
		l-0.6-1c-0.1-0.1-0.1-0.1-0.2-0.1c-0.1,0-0.2,0.1-0.2,0.2l-0.6,1.6l-1.6-0.3C13.3,10.3,13.6,9.2,14,8.2z M15.8,17.1
		c-0.1,0-1.2-0.1-1.3-0.8c-0.1-0.6,0.2-1.3,0.4-1.5h0.5c0.1,0,0.3-0.1,0.3-0.3V14c0.3,0,0.5,0.1,0.6,0.1v2.2L16,17.1H15.8z
		 M12.9,12.5c-0.1-0.5,0-1,0.1-1.2l1.7,0.3c0,0.3,0.3,0.6,0.6,0.7l0,0l1.9,0.3c0.3,0.1,0.5,0.3,0.5,0.7L17.5,16h-0.8v-2.2
		c0-0.1-0.1-0.2-0.2-0.3c0,0-0.6-0.1-1.6-0.2C13.9,13.3,13,13.1,12.9,12.5z M16.7,16.6h1.1l0.6,0.2c-0.3,0.2-0.5,0.3-0.6,0.4h-1.2
		L16.7,16.6z M18.8,16.3L18,16.1l0.2-2.7c0-0.6-0.4-1.1-0.9-1.2l-1.9-0.3c-0.2,0-0.2-0.2-0.2-0.4l0.5-1.3l0.4,0.6
		c0.2,0.3,0.4,0.4,0.7,0.5l1.6,0.3c0.2,0.5,1,2.1,1,3.5C19.3,15.6,19.1,16,18.8,16.3z M9.2,8.5v0.6H8.7V8.5H9.2z M6.7,12.4h1.2
		c0.1,0,0.3-0.1,0.3-0.3c0-0.1-0.1-0.3-0.3-0.3H6.7v-0.4h1.9c0.1,0,0.3-0.1,0.3-0.3s-0.1-0.3-0.3-0.3H6.7V8.5h1.5v0.9
		c0,0.1,0.1,0.3,0.3,0.3h1c0.1,0,0.3-0.1,0.3-0.3V8.5h1.6V13H8.9H6.7V12.4z M9.2,13.5h2.3h1.6c0.5,0.2,1.1,0.3,1.6,0.4
		c0.1,0,0.2,0,0.3,0v0.3H9.3L9.2,13.5z M10.4,20.4c-0.9,0-1.7-0.7-1.8-1.6h0.6c0.1,0.5,0.6,0.9,1.2,0.9c0.6,0,1-0.4,1.2-0.9h0.6
		C12.1,19.7,11.4,20.4,10.4,20.4z M9.8,18.8h1.3c-0.1,0.2-0.4,0.4-0.6,0.4C10.2,19.2,9.9,19.1,9.8,18.8z M13.1,18.3h-1.6
		c0,0-0.1-0.1-0.2-0.1c-0.1,0-0.1,0-0.2,0.1H9.6c0,0-0.1-0.1-0.2-0.1c-0.1,0-0.1,0-0.2,0.1H7.4c0-0.1,0.1-0.3,0.1-0.5h1.7
		c0.1,0,0.3-0.1,0.3-0.3s-0.1-0.3-0.3-0.3H7.8c0.1,0,0.2-0.2,0.3-0.3h2.3c0.1,0,0.3-0.1,0.3-0.3s-0.1-0.3-0.3-0.3H8.5
		c0.3-0.3,0.7-0.5,1.1-0.6c1.2-0.3,2.2-0.2,2.8,0.4C13,16.6,13.2,17.3,13.1,18.3z M18.3,18.3h-4.7c0.1-1.4-0.4-2.2-0.8-2.6
		c-0.7-0.6-1.8-0.8-3-0.5l0.1-0.4h4.3c-0.2,0.4-0.4,1-0.3,1.6c0.2,1.1,1.7,1.2,1.8,1.2l0,0h0.4l0,0l0,0h1.6h0.1c0.1,0,2-0.7,2-2.6
		c0-1.3-0.6-2.8-0.9-3.4c0.1,0,0.2,0,0.3-0.1c0.2-0.1,0.4-0.3,0.5-0.6c0.1-0.2,0-0.5-0.2-0.7c-0.1-0.1-0.2-0.2-0.3-0.2
		c0.4-0.2,1-0.3,1.9-0.2l-0.2,1.6H20c-0.1,0-0.2,0-0.2,0.1s-0.1,0.2,0,0.3l1.5,3.2L18.3,18.3z M19.5,17.8l1.9-2.1
		c0.3,0,1.5-0.1,2.3,0.5l-0.5,0.3l0,0l-3.8,2.3C19.4,18.5,19.3,18.1,19.5,17.8z M22.3,18c0.3,0,0.5,0.2,0.5,0.5S22.6,19,22.3,19
		s-0.5-0.2-0.5-0.5S22,18,22.3,18z M22.3,20.4c-1,0-1.7-0.6-1.9-1.6l0.9-0.6c0,0.1-0.1,0.2-0.1,0.3c0,0.5,0.4,1,1,1c0.5,0,1-0.4,1-1
		c0-0.5-0.4-0.9-0.8-1l0.9-0.6c0.5,0.3,0.8,0.9,0.8,1.5C24.2,19.5,23.3,20.4,22.3,20.4z"/>
	<path class="st1" d="M8.4,15c0.1,0,0.3-0.1,0.3-0.3s-0.1-0.3-0.3-0.3H4c-0.1,0-0.3,0.1-0.3,0.3S3.9,15,4,15H8.4z"/>
	<path class="st1" d="M7.4,15.7c0-0.1-0.1-0.3-0.3-0.3H0.6c-0.1,0-0.3,0.1-0.3,0.3S0.4,16,0.6,16h6.6C7.3,15.9,7.4,15.8,7.4,15.7z"
		/>
</g>
</svg>
