<?xml version="1.0" encoding="utf-8"?>
<!-- Generator: Adobe Illustrator 19.0.0, SVG Export Plug-In . SVG Version: 6.00 Build 0)  -->
<svg version="1.1" id="Layer_1" xmlns="http://www.w3.org/2000/svg" xmlns:xlink="http://www.w3.org/1999/xlink" x="0px" y="0px"
	 viewBox="-260 352 90 90" style="enable-background:new -260 352 90 90;" xml:space="preserve">
<style type="text/css">
	.st0{fill:#231F20;}
	.st1{fill:#8C4298;}
</style>
<title>Artboard 9</title>
<g id="XMLID_1556_">
	<g id="XMLID_1554_">
		<polygon class="st0" points="-179.3,441.1 -250.7,441.1 -250.7,391.1 -246.9,391.1 -246.9,437.2 -183.1,437.2 -183.1,391.7 
			-179.3,391.7 		"/>
	</g>
	<g id="XMLID_1551_">
		<rect x="-256.4" y="389.4" class="st0" width="82.9" height="3.9"/>
	</g>
	<g id="XMLID_145_">
		<rect x="-226.3" y="371.7" class="st1" width="24.1" height="67"/>
	</g>
	<g id="XMLID_1709_">
		<path class="st0" d="M-200.2,440.6h-28v-70.9h28V440.6z M-224.3,436.8h20.3v-63.1h-20.3V436.8z"/>
	</g>
	<g id="XMLID_1708_">
		<polygon class="st0" points="-252.6,391.1 -256.5,391.1 -256.5,369.1 -173.5,369.1 -173.5,390.8 -177.4,390.8 -177.4,373 
			-252.6,373 		"/>
	</g>
	<g id="XMLID_1710_">
		<g id="XMLID_1707_">
			<path class="st0" d="M-217.1,371.5l1.4-3c0.3-0.6,6.5-13.5,15.2-15.3c3.4-0.7,6.6,0.3,9.5,2.8c2.8,2.4,2.8,4.6,2.3,6.1
				c-2.5,7.5-25,9.2-25.2,9.2L-217.1,371.5z M-198.4,356.8c-0.4,0-0.9,0-1.3,0.1c-4.3,0.9-8.4,6.2-10.8,10.1
				c8.3-1.1,17.4-3.7,18.2-6.2c0.2-0.6-0.7-1.5-1.2-1.9C-195.1,357.5-196.7,356.8-198.4,356.8z"/>
		</g>
		<g id="XMLID_1711_">
			<path class="st0" d="M-212.8,371.5l-3.3-0.2c-0.2,0-22.7-1.7-25.2-9.2c-0.5-1.4-0.5-3.7,2.3-6.1c3-2.6,6.2-3.6,9.5-2.8
				c8.7,1.8,15,14.8,15.2,15.3L-212.8,371.5z M-231.5,356.8c-1.7,0-3.3,0.7-4.9,2.1c-0.5,0.5-1.4,1.3-1.2,1.9
				c0.8,2.5,9.9,5.1,18.2,6.2c-2.4-3.9-6.5-9.2-10.8-10.1C-230.7,356.9-231.1,356.8-231.5,356.8z"/>
		</g>
	</g>
</g>
</svg>
