<?xml version="1.0" encoding="utf-8"?>
<!-- Generator: Adobe Illustrator 19.0.0, SVG Export Plug-In . SVG Version: 6.00 Build 0)  -->
<svg version="1.1" id="Layer_1" xmlns="http://www.w3.org/2000/svg" xmlns:xlink="http://www.w3.org/1999/xlink" x="0px" y="0px"
	 viewBox="-260 352 90 90" style="enable-background:new -260 352 90 90;" xml:space="preserve">
<style type="text/css">
	.st0{fill:#231F20;}
	.st1{fill:#8C4298;}
</style>
<title>Artboard 9</title>
<g id="XMLID_2275_">
	<g id="XMLID_1882_">
		
			<rect x="-258" y="399.7" transform="matrix(0.7506 0.6608 -0.6608 0.7506 205.127 259.7922)" class="st0" width="32.8" height="3.8"/>
	</g>
	<g id="XMLID_1880_">
		<polygon class="st0" points="-173.5,440 -256.5,440 -256.5,389.1 -252.7,389.1 -252.7,436.2 -177.3,436.2 -177.3,390 -173.5,390 
					"/>
	</g>
	<g id="XMLID_1996_">
		<g id="XMLID_1879_">
			<polygon class="st0" points="-182.6,399.2 -186.4,399.2 -186.4,357.8 -243.6,357.8 -243.6,397.8 -247.4,397.8 -247.4,354 
				-182.6,354 			"/>
		</g>
	</g>
	<g id="XMLID_1878_">
		
			<rect x="-189.1" y="386.3" transform="matrix(0.6772 0.7358 -0.7358 0.6772 235.1815 267.438)" class="st0" width="3.8" height="31"/>
	</g>
	<g id="XMLID_1995_">
		<polygon class="st0" points="-252.6,437 -255.2,434.2 -213.6,394.5 -211,397.3 		"/>
	</g>
	<g id="XMLID_1881_">
		<polygon class="st0" points="-177.1,436.5 -215.5,398.2 -212.8,395.5 -174.5,433.8 		"/>
	</g>
	<g id="XMLID_1997_">
		
			<rect x="-252.3" y="380.6" transform="matrix(0.6354 0.7722 -0.7722 0.6354 207.3077 334.3322)" class="st0" width="3.8" height="12.2"/>
	</g>
	<g id="XMLID_1998_">
		
			<rect x="-186.3" y="385.2" transform="matrix(0.7541 0.6568 -0.6568 0.7541 209.993 213.3142)" class="st0" width="13" height="3.8"/>
	</g>
	<g id="XMLID_2276_">
		<path class="st1" d="M-201,366.9c-1.7-2.7-4.6-4.1-7.8-3.8c-2.8,0.2-4.7,1.5-6,2.9c-1.1-1.3-3.1-2.7-6.3-2.9
			c-3.2-0.1-6.1,1.2-7.8,3.8c-1.7,2.7-1.9,6.1-0.5,8.8c1,1.9,4,4.5,6.3,6.3c4.3,3.4,5.5,6.9,5.5,6.9l0.3-0.1l2.8,1.8
			c0-0.1,3.3-5.2,7.8-8.6l0.2-0.2c2.8-2.2,4.7-3.6,6.1-6.1C-199.1,373-199.3,369.6-201,366.9z"/>
	</g>
	<g id="XMLID_2274_">
		<g id="XMLID_2005_">
			<path class="st0" d="M-214.6,390.6l-3.2-2c0.1-0.2,3.7-5.8,8.7-9.6l0.2-0.2c2.6-2,4.1-3.1,5-4.9c0.8-1.5,0.7-3.5-0.3-5
				c-0.6-0.9-1.9-2.3-4.4-2.1c-3.8,0.3-5,3.9-5,4l-3.6-1.1c0.1-0.3,1.9-6.2,8.3-6.7c3.3-0.2,6.1,1.2,7.8,3.8
				c1.7,2.7,1.9,6.2,0.5,8.9c-1.3,2.5-3.2,3.9-6.1,6.1l-0.2,0.2C-211.2,385.4-214.6,390.5-214.6,390.6z"/>
		</g>
		<g id="XMLID_2273_">
			<path class="st0" d="M-217.7,388.9c0,0-1.2-3.5-5.5-6.9c-2.3-1.8-5.3-4.4-6.3-6.3c-1.4-2.8-1.2-6.2,0.5-8.8
				c1.7-2.6,4.5-4,7.8-3.8c6.6,0.3,7.8,5.4,7.8,5.6l-3.7,0.8c-0.1-0.2-0.8-2.5-4.3-2.7c-2.5-0.1-3.8,1.3-4.4,2.1
				c-1,1.5-1.1,3.5-0.3,5.1c0.4,0.7,2,2.5,5.2,5c5.4,4.1,6.8,8.6,6.8,8.8L-217.7,388.9l1.8-0.6L-217.7,388.9z"/>
		</g>
	</g>
</g>
<title>Artboard 9</title>
</svg>
