<?xml version="1.0" encoding="utf-8"?>
<!-- Generator: Adobe Illustrator 25.2.2, SVG Export Plug-In . SVG Version: 6.00 Build 0)  -->
<svg version="1.1" id="Layer_1" xmlns="http://www.w3.org/2000/svg" xmlns:xlink="http://www.w3.org/1999/xlink" x="0px" y="0px"
	 viewBox="0 0 25 25" style="enable-background:new 0 0 25 25;" xml:space="preserve">
<style type="text/css">
	.st0{fill:#E01A2A;}
	.st1{fill:#23B257;}
</style>
<g>
	<path class="st0" d="M11.6,20.8c-2.2-0.4-5.3-2.5-4.8-6c0.2-1.5,1.1-3,2.6-4c1.2-0.8,2.4-0.9,3.8-1.2c1.9-0.4,2.6-2.3,1.9-3.3
		c-0.4-0.6-1.1-1.1-2.2-1.4c-2.2-0.6-4.7,0.2-6.9,1.8c-4.7,3.4-5.8,9.1-2.5,13.6c2.1,2.9,5.1,4.3,8.3,4.1c1.8-0.1,3.3-0.5,5.1-1.7
		c1.2-0.9,2.3-2.9,2.3-4.8c0-2.3-2.7-3.7-4.6-3.2c-0.8,0.2-1.5,0.9-2,2.2c0,0,0.7-1.2,1.6-1.4c1.2-0.3,2.7,0.3,2.9,1.7
		C17.2,19.2,15.4,21.4,11.6,20.8z"/>
	<path class="st1" d="M17.7,6.1c1.9-0.6,4.5-2,5.8-5.6c0,0-0.2,4.6-6.6,7.5c-0.5,0.2-1.3,0.8-1.7,1.2c-1.1,1.1-2.2,1.4-3,1.5
		l1.3-1.5L14,8.4c0.2-0.9,0.2-1.5-0.3-2.2c-0.2-0.2-0.4-0.4-0.6-0.6l-1.8-1.4c0,0,2.2,0.5,3.7,1.5C15.7,6.1,16.9,6.4,17.7,6.1z"/>
</g>
</svg>
