<?xml version="1.0" encoding="utf-8"?>
<!-- Generator: Adobe Illustrator 25.2.2, SVG Export Plug-In . SVG Version: 6.00 Build 0)  -->
<svg version="1.1" id="Layer_1" xmlns="http://www.w3.org/2000/svg" xmlns:xlink="http://www.w3.org/1999/xlink" x="0px" y="0px"
	 viewBox="0 0 90 90" style="enable-background:new 0 0 90 90;" xml:space="preserve">
<style type="text/css">
	.st0{fill:#FFFFFF;}
	.st1{fill:#D7D7D7;}
	.st2{fill:#404040;}
	.st3{fill:#323031;}
	.st4{fill:#B81414;}
	.st5{fill:#E01B22;}
</style>
<g id="XMLID_162_">
	<polyline class="st0" points="42.3,71 42.3,31 88.1,22.4 88.1,61 42.3,71 	"/>
</g>
<g id="XMLID_161_">
	<path class="st1" d="M83.4,23v30.2c0,3.2-2.6,5.7-5.7,5.7l-35.4,7.9V71l45.8-10.1V22.2L83.4,23z"/>
</g>
<g id="XMLID_159_">
	<path class="st2" d="M42.3,71.9c-0.4,0-0.7-0.2-0.8-0.6s0.2-0.8,0.6-0.9l45.2-9.9v-3.1c0-0.4,0.4-0.8,0.8-0.8s0.8,0.4,0.8,0.8v3.8
		c0,0.4-0.3,0.7-0.6,0.8L42.5,72.1C42.4,71.9,42.3,71.9,42.3,71.9z"/>
</g>
<g id="XMLID_158_">
	<path class="st2" d="M88.1,55c-0.4,0-0.8-0.4-0.8-0.8v-0.8c0-0.4,0.4-0.8,0.8-0.8s0.8,0.4,0.8,0.8v0.8C88.9,54.7,88.5,55,88.1,55z"
		/>
</g>
<g id="XMLID_157_">
	<path class="st2" d="M42.3,71.9c-0.4,0-0.8-0.4-0.8-0.8V31c0-0.4,0.3-0.7,0.6-0.8l45.8-8.6c0.2,0,0.5,0,0.6,0.2
		c0.2,0.1,0.3,0.4,0.3,0.6v27.5c0,0.4-0.4,0.8-0.8,0.8s-0.8-0.4-0.8-0.8V23.3l-44.3,8.3v39.5C43.1,71.5,42.7,71.9,42.3,71.9z"/>
</g>
<g id="XMLID_155_">
	<path class="st2" d="M42.3,71.9c-0.4,0-0.8-0.4-0.8-0.8V31.4L19.9,17.8v26.8c0,0.4-0.4,0.8-0.8,0.8s-0.8-0.4-0.8-0.8V16.3
		c0-0.3,0.2-0.5,0.4-0.7c0.3-0.1,0.6-0.1,0.8,0l23.1,14.6c0.2,0.1,0.4,0.4,0.4,0.7V71C43.1,71.5,42.7,71.9,42.3,71.9z"/>
</g>
<g id="XMLID_151_">
	<path class="st3" d="M42.3,71.9c-0.2,0-0.3,0-0.4-0.1L18.8,56.4c-0.2-0.1-0.4-0.4-0.4-0.7v-3.8c0-0.4,0.4-0.8,0.8-0.8
		s0.8,0.4,0.8,0.8v3.4l22.8,15.1c0.4,0.2,0.5,0.7,0.2,1.1C42.8,71.8,42.5,71.9,42.3,71.9z"/>
</g>
<g id="XMLID_150_">
	<path class="st2" d="M88.1,23c-0.1,0-0.2,0-0.3-0.1L61.2,10.4l-41.9,6.5c-0.4,0.1-0.8-0.2-0.9-0.7c-0.1-0.4,0.2-0.8,0.7-0.9
		l42.1-6.6c0.2,0,0.3,0,0.5,0.1l26.8,12.6c0.4,0.2,0.6,0.7,0.4,1C88.7,23,88.4,23,88.1,23z"/>
</g>
<g id="XMLID_149_">
	<path class="st2" d="M65.2,27.4c-0.1,0-0.3,0-0.4-0.1L41.9,13.6c-0.4-0.2-0.5-0.7-0.3-1.1s0.7-0.5,1.1-0.3l22.9,13.7
		c0.4,0.2,0.5,0.7,0.3,1.1C65.7,27.3,65.5,27.4,65.2,27.4z"/>
</g>
<g id="XMLID_2696_">
	<circle class="st0" cx="27.8" cy="61.5" r="19.8"/>
</g>
<g id="XMLID_137_">
	<circle class="st4" cx="27" cy="62.3" r="16.2"/>
</g>
<g id="XMLID_163_">
	<circle class="st5" cx="25.7" cy="63.5" r="14.9"/>
</g>
<g id="XMLID_2709_">
	<path class="st2" d="M27,79.3c-5.5,0-10.8-2.7-13.9-7.2c-0.2-0.4-0.2-0.8,0.2-1.1s0.8-0.2,1.1,0.2c2.9,4.1,7.6,6.6,12.7,6.6
		c8.5,0,15.5-6.9,15.5-15.5s-6.9-15.5-15.5-15.5c-7.5,0-13.9,5.4-15.2,12.8c-0.1,0.4-0.5,0.7-0.9,0.6s-0.7-0.5-0.6-0.9
		c1.4-8.2,8.5-14.1,16.8-14.1c9.4,0,17,7.6,17,17C44.2,71.5,36.4,79.3,27,79.3z"/>
</g>
<g id="XMLID_2708_">
	<path class="st2" d="M10.9,65c-0.4,0-0.7-0.3-0.8-0.7C10,63.7,10,63,10,62.3c0-0.4,0.4-0.8,0.8-0.8s0.8,0.4,0.8,0.8
		c0,0.6,0,1.2,0.1,1.8C11.7,64.5,11.4,64.9,10.9,65L10.9,65z"/>
</g>
<g id="XMLID_2703_">
	<g id="XMLID_2707_">
		<path class="st2" d="M12.8,58.4H6.5c-0.4,0-0.8-0.4-0.8-0.8s0.4-0.8,0.8-0.8h6.3c0.4,0,0.8,0.4,0.8,0.8
			C13.5,58,13.2,58.4,12.8,58.4z"/>
	</g>
	<g id="XMLID_2706_">
		<path class="st2" d="M17.3,63H1.9c-0.4,0-0.8-0.4-0.8-0.8s0.4-0.8,0.8-0.8h15.4c0.4,0,0.8,0.4,0.8,0.8S17.7,63,17.3,63z"/>
	</g>
	<g id="XMLID_2705_">
		<path class="st2" d="M18.7,67.8h-10c-0.4,0-0.8-0.4-0.8-0.8s0.4-0.8,0.8-0.8h10c0.4,0,0.8,0.4,0.8,0.8S19.2,67.8,18.7,67.8z"/>
	</g>
	<g id="XMLID_2704_">
		<path class="st2" d="M5.8,67.8H4.5c-0.4,0-0.8-0.4-0.8-0.8s0.4-0.8,0.8-0.8h1.3c0.4,0,0.8,0.4,0.8,0.8C6.6,67.4,6.2,67.8,5.8,67.8
			z"/>
	</g>
</g>
<g id="XMLID_2702_">
	<path class="st0" d="M32.4,67.5c-0.2,0-0.3-0.1-0.5-0.2l-5.6-4.4c-0.2-0.1-0.3-0.4-0.3-0.6v-11c0-0.4,0.4-0.8,0.8-0.8
		c0.4,0,0.8,0.4,0.8,0.8v10.6l5.3,4.1c0.3,0.3,0.4,0.8,0.1,1.1C32.9,67.4,32.7,67.5,32.4,67.5z"/>
</g>
<g id="XMLID_2701_">
	<path class="st0" d="M39.4,64.7c-1.3,0-2.4-1.1-2.4-2.4s1.1-2.4,2.4-2.4s2.4,1.1,2.4,2.4S40.7,64.7,39.4,64.7z M39.4,61.5
		c-0.5,0-0.8,0.4-0.8,0.8s0.4,0.8,0.8,0.8c0.5,0,0.8-0.4,0.8-0.8S39.8,61.5,39.4,61.5z"/>
</g>
<g id="XMLID_2699_">
	<path class="st0" d="M27.1,77c-1.3,0-2.4-1.1-2.4-2.4s1.1-2.4,2.4-2.4c1.3,0,2.4,1.1,2.4,2.4S28.5,77,27.1,77z M27.1,73.8
		c-0.5,0-0.8,0.4-0.8,0.8c0,0.5,0.4,0.8,0.8,0.8c0.5,0,0.8-0.4,0.8-0.8C28,74.2,27.6,73.8,27.1,73.8z"/>
</g>
<g>
	<g>
		<path class="st5" d="M56.7,52c0,0,7.7,2.2,12.8-6l7.6-1.7c0,0-1.7,5.5-6.6,8.2C65.6,55.1,60.5,55.4,56.7,52z"/>
	</g>
	<g>
		<path class="st2" d="M65.5,54.8c-5.3,1-10.1-1.3-12.1-5.9l-0.3-0.8L78,43.4l-0.3,0.9C75.6,49.7,70.9,53.8,65.5,54.8z M55,49
			c2,3.6,6,5.4,10.5,4.6s8.6-4.1,10.5-8.5L55,49z"/>
	</g>
	<g>
		<polygon class="st2" points="71.7,54.2 59.3,56.5 59.3,55.3 71.7,53 		"/>
	</g>
	<g>
		<path class="st5" d="M75.8,43l-0.6-0.1c-0.1,0-7.5-1.6-4.6-10.5l0.2-0.7l0.6,0.2c0.1,0,7.7,2.5,4.6,10.5L75.8,43z M71.5,33.4
			c-1.5,5.7,2.1,7.6,3.6,8.1C76.7,36.4,73.1,34.1,71.5,33.4z"/>
	</g>
	<g>
		<path class="st5" d="M53.7,47.6L53.6,47c0-0.1-1.5-6.1,5.4-9.4l0.7-0.3l0.1,0.7c0,0.1,1,6.8-5.4,9.4L53.7,47.6z M58.6,39.1
			c-3.9,2.2-4,5.4-3.9,6.7C58.3,44.1,58.6,40.7,58.6,39.1z"/>
	</g>
	<g>
		<path class="st5" d="M63.6,37.3c-1.9,0.4-4.1,0-6.3-2l-0.5-0.4l0.6-0.5c0.1-0.1,6.7-5.7,11.3-0.6l0.4,0.4l-0.5,0.5
			C68.6,34.7,66.5,36.7,63.6,37.3z M58.8,34.7c3.6,2.9,7.2,0.6,8.5-0.5C64.3,31.4,60.4,33.7,58.8,34.7z"/>
	</g>
	<g>
		<path class="st5" d="M62.5,43.5c-1.2,0.2-2.2-0.6-2.2-1.8c0-1.2,1-2.4,2.2-2.6s2.2,0.6,2.2,1.8C64.7,42.1,63.7,43.3,62.5,43.5z
			 M62.5,40.4c-0.5,0.1-1,0.6-1,1.1s0.4,0.9,1,0.8s1-0.6,1-1.1S63,40.3,62.5,40.4z"/>
	</g>
	<g>
		<path class="st5" d="M71.9,44.1c-0.2,0-4.4-0.2-6.9-5.1l1.1-0.7c2.3,4.4,5.9,4.6,6.1,4.6L71.9,44.1z"/>
	</g>
	<g>
		<path class="st5" d="M68,42.3c0-0.1-0.6-1.7-0.1-4.5l1.2,0c-0.5,2.4,0,3.8,0,3.8L68,42.3z"/>
	</g>
	<g>
		<path class="st5" d="M70.2,43.8c0,0-2.5-0.5-5.5,0.8l-0.3-1.2c3.4-1.5,6.1-0.9,6.3-0.9L70.2,43.8z"/>
	</g>
</g>
</svg>
