<?xml version="1.0" encoding="utf-8"?>
<!-- Generator: Adobe Illustrator 25.2.2, SVG Export Plug-In . SVG Version: 6.00 Build 0)  -->
<svg version="1.1" id="Layer_1" xmlns="http://www.w3.org/2000/svg" xmlns:xlink="http://www.w3.org/1999/xlink" x="0px" y="0px"
	 viewBox="0 0 90 90" style="enable-background:new 0 0 90 90;" xml:space="preserve">
<style type="text/css">
	.st0{fill:#FFFFFF;}
	.st1{fill:#D7D7D7;}
	.st2{fill:#404040;}
	.st3{fill:#E01B22;}
	.st4{fill:#B81414;}
</style>
<g id="XMLID_211_">
	<polyline class="st0" points="40.5,71.6 40.5,30.5 87.5,21.7 87.5,61.3 40.5,71.6 	"/>
</g>
<g id="XMLID_210_">
	<path class="st1" d="M82.6,22.4v31c0,3.2-2.6,5.9-5.9,5.9l-36.3,8.1v4.3l47-10.3V21.8L82.6,22.4z"/>
</g>
<g id="XMLID_209_">
	<path class="st2" d="M40.5,72.4c-0.4,0-0.7-0.3-0.8-0.6c-0.1-0.4,0.2-0.9,0.6-1l46.3-10.2v-3.2c0-0.4,0.4-0.8,0.8-0.8
		c0.4,0,0.8,0.4,0.8,0.8v3.9c0,0.4-0.3,0.7-0.6,0.8l-47,10.3C40.6,72.4,40.6,72.4,40.5,72.4z"/>
</g>
<g id="XMLID_208_">
	<path class="st2" d="M87.5,55.1c-0.4,0-0.8-0.4-0.8-0.8v-0.9c0-0.4,0.4-0.8,0.8-0.8c0.4,0,0.8,0.4,0.8,0.8v0.9
		C88.3,54.8,87.9,55.1,87.5,55.1z"/>
</g>
<g id="XMLID_207_">
	<path class="st2" d="M40.5,72.4c-0.4,0-0.8-0.4-0.8-0.8V30.5c0-0.4,0.3-0.7,0.7-0.8l47-8.8c0.2,0,0.5,0,0.7,0.2s0.3,0.4,0.3,0.6
		v28.2c0,0.4-0.4,0.8-0.8,0.8c-0.4,0-0.8-0.4-0.8-0.8V22.6l-45.4,8.5v40.5C41.3,72.1,40.9,72.4,40.5,72.4z"/>
</g>
<g id="XMLID_196_">
	<path class="st2" d="M40.5,72.4c-0.4,0-0.8-0.4-0.8-0.8V30.9l-22.1-14v27.5c0,0.4-0.4,0.8-0.8,0.8c-0.4,0-0.8-0.4-0.8-0.8v-29
		c0-0.3,0.2-0.6,0.4-0.7c0.3-0.1,0.6-0.1,0.8,0l23.7,15c0.2,0.1,0.4,0.4,0.4,0.7v41.1C41.3,72.1,40.9,72.4,40.5,72.4z"/>
</g>
<g id="XMLID_195_">
	<path class="st2" d="M40.5,72.4c-0.2,0-0.3,0-0.4-0.1L16.4,56.6c-0.2-0.1-0.4-0.4-0.4-0.7V52c0-0.4,0.4-0.8,0.8-0.8
		c0.4,0,0.8,0.4,0.8,0.8v3.4L41,70.9c0.4,0.2,0.5,0.7,0.2,1.1C41,72.3,40.8,72.4,40.5,72.4z"/>
</g>
<g id="XMLID_194_">
	<path class="st2" d="M87.5,22.5c-0.1,0-0.2,0-0.3-0.1L59.9,9.6L17,16.3c-0.4,0.1-0.8-0.2-0.9-0.7c-0.1-0.4,0.2-0.8,0.7-0.9L60,8
		c0.2,0,0.3,0,0.5,0.1L88,21c0.4,0.2,0.6,0.7,0.4,1.1C88.1,22.3,87.8,22.5,87.5,22.5z"/>
</g>
<g id="XMLID_193_">
	<path class="st2" d="M64,26.9c-0.1,0-0.3,0-0.4-0.1L40.1,12.7c-0.4-0.2-0.5-0.7-0.3-1.1s0.7-0.5,1.1-0.3l23.5,14.1
		c0.4,0.2,0.5,0.7,0.3,1.1C64.5,26.7,64.3,26.9,64,26.9z"/>
</g>
<g id="XMLID_180_">
	<path class="st0" d="M17.5,32.3C9,32.6,2,39.6,1.6,48.1c0,0.3,0,0.6,0,0.9c0,2.8,0.9,5.5,2.2,7.9l5.7,10l9.2,15.2L28,65.7l4.9-9.5
		c0.4-0.9,0.8-1.8,1.1-2.7c0.4-1.4,0.6-2.9,0.6-4.5C34.7,39.5,26.9,32,17.5,32.3z"/>
</g>
<g id="XMLID_176_">
	<path class="st3" d="M17,36.1C9.5,36.4,3.4,42.5,3,49.9c0,0.3,0,0.5,0,0.8c0,2.4,0.8,4.8,2,6.9l5,8.8l8.1,13.4l8.2-14.4l4.3-8.4
		c0.4-0.8,0.7-1.6,1-2.4c0.4-1.3,0.6-2.6,0.6-4C32.1,42.5,25.3,35.8,17,36.1z M17.6,58.8C12.9,58.8,9,55,9,50.2s3.8-8.6,8.6-8.6
		s8.6,3.8,8.6,8.6S22.3,58.8,17.6,58.8z"/>
</g>
<g id="XMLID_174_">
	<g id="XMLID_175_">
		<path class="st4" d="M17,36.1c-2.9,0.1-5.7,1.1-7.9,2.8c1.4-0.6,3-0.9,4.6-1c8.3-0.3,15.1,6.3,15.1,14.6c0,1.4-0.2,2.7-0.6,4
			c-0.2,0.8-0.6,1.6-1,2.4l-4.3,8.4l-6,10.6l1.2,2l8.2-14.4l4.3-8.4c0.4-0.8,0.7-1.6,1-2.4c0.4-1.3,0.6-2.6,0.6-4
			C32.1,42.5,25.3,35.8,17,36.1z"/>
	</g>
</g>
<g id="XMLID_169_">
	<g id="XMLID_173_">
		<path class="st2" d="M17.6,59.6c-5.2,0-9.4-4.2-9.4-9.4c0-5.2,4.2-9.4,9.4-9.4S27,45,27,50.2S22.7,59.6,17.6,59.6z M17.6,42.5
			c-4.3,0-7.8,3.5-7.8,7.8s3.5,7.8,7.8,7.8s7.8-3.5,7.8-7.8C25.3,46,21.9,42.5,17.6,42.5z"/>
	</g>
	<g id="XMLID_172_">
		<path class="st2" d="M18.1,80.6c-0.3,0-0.5-0.1-0.7-0.4L9.3,66.8l-5-8.8c-1.3-2.3-2.1-4.9-2.1-7.3c0-0.3,0-0.6,0-0.9
			C2.6,41.9,9.1,35.5,17,35.2c4.2-0.1,8.2,1.4,11.3,4.3c3,2.9,4.7,6.9,4.7,11.1c0,1.4-0.2,2.8-0.6,4.2c-0.2,0.8-0.6,1.6-1,2.5
			L27,65.8c-0.2,0.4-0.7,0.5-1.1,0.3c-0.4-0.2-0.6-0.7-0.3-1.1l4.4-8.5c0.4-0.8,0.7-1.5,0.9-2.2c0.3-1.2,0.5-2.5,0.5-3.7
			c0-3.8-1.5-7.3-4.2-9.9s-6.3-4-10.1-3.8C10,37.2,4.2,42.9,3.9,50c0,0.3,0,0.5,0,0.8c0,2.2,0.7,4.4,1.9,6.5l5,8.8l7.4,12.2l4.3-7.4
			c0.2-0.4,0.7-0.5,1.1-0.3c0.4,0.2,0.5,0.7,0.3,1.1L19,80.3C18.7,80.5,18.4,80.6,18.1,80.6L18.1,80.6z"/>
	</g>
	<g id="XMLID_171_">
		<path class="st2" d="M24.4,69.5c-0.1,0-0.3,0-0.4-0.1c-0.4-0.2-0.5-0.7-0.3-1.1l0.6-1.1c0.2-0.4,0.7-0.5,1.1-0.3
			c0.4,0.2,0.5,0.7,0.3,1.1l-0.6,1.1C25,69.4,24.7,69.5,24.4,69.5z"/>
	</g>
	<g id="XMLID_170_">
		<path class="st2" d="M17.6,59.6c-5.2,0-9.4-4.2-9.4-9.4c0-5.2,4.2-9.4,9.4-9.4S27,45,27,50.2S22.7,59.6,17.6,59.6z M17.6,42.5
			c-4.3,0-7.8,3.5-7.8,7.8s3.5,7.8,7.8,7.8s7.8-3.5,7.8-7.8C25.3,46,21.9,42.5,17.6,42.5z"/>
	</g>
</g>
<g>
	<g>
		<path class="st3" d="M55.8,52.6c0,0,7.7,2.2,12.8-6l7.6-1.7c0,0-1.7,5.5-6.6,8.2C64.7,55.7,59.6,56,55.8,52.6z"/>
	</g>
	<g>
		<path class="st2" d="M64.6,55.4c-5.3,1-10.1-1.3-12.1-5.9l-0.3-0.8L77.1,44L76.7,45C74.7,50.3,70,54.4,64.6,55.4z M54.1,49.6
			c2,3.6,6,5.4,10.5,4.6s8.6-4.1,10.5-8.5L54.1,49.6z"/>
	</g>
	<g>
		<polygon class="st2" points="70.9,54.8 58.4,57.1 58.4,55.9 70.9,53.6 		"/>
	</g>
	<g>
		<path class="st3" d="M74.9,43.6l-0.6-0.1c-0.1,0-7.5-1.6-4.6-10.5l0.2-0.7l0.6,0.2c0.1,0,7.7,2.5,4.6,10.5L74.9,43.6z M70.6,34
			c-1.5,5.7,2.1,7.6,3.6,8.1C75.8,37,72.2,34.7,70.6,34z"/>
	</g>
	<g>
		<path class="st3" d="M52.9,48.2l-0.1-0.6c0-0.1-1.5-6.1,5.4-9.4l0.7-0.3l0.1,0.7c0,0.1,1,6.8-5.4,9.4L52.9,48.2z M57.7,39.7
			c-3.9,2.2-4,5.4-3.9,6.7C57.4,44.7,57.7,41.3,57.7,39.7z"/>
	</g>
	<g>
		<path class="st3" d="M62.8,37.9c-1.9,0.4-4.1,0-6.3-2L56,35.4l0.6-0.5c0.1-0.1,6.7-5.7,11.3-0.6l0.4,0.4l-0.5,0.5
			C67.8,35.3,65.6,37.4,62.8,37.9z M58,35.3c3.6,2.9,7.2,0.6,8.5-0.5C63.4,32,59.5,34.3,58,35.3z"/>
	</g>
	<g>
		<path class="st3" d="M61.6,44.1c-1.2,0.2-2.2-0.6-2.2-1.8c0-1.2,1-2.4,2.2-2.6c1.2-0.2,2.2,0.6,2.2,1.8
			C63.8,42.7,62.8,43.9,61.6,44.1z M61.6,41c-0.5,0.1-1,0.6-1,1.1s0.4,0.9,1,0.8c0.5-0.1,1-0.6,1-1.1S62.1,40.9,61.6,41z"/>
	</g>
	<g>
		<path class="st3" d="M71.1,44.7c-0.2,0-4.4-0.2-6.9-5.1l1.1-0.7c2.3,4.4,5.9,4.6,6.1,4.6L71.1,44.7z"/>
	</g>
	<g>
		<path class="st3" d="M67.2,42.9c0-0.1-0.6-1.7-0.1-4.5l1.2,0c-0.5,2.4,0,3.8,0,3.8L67.2,42.9z"/>
	</g>
	<g>
		<path class="st3" d="M69.3,44.4c0,0-2.5-0.5-5.5,0.8L63.6,44c3.4-1.5,6.1-0.9,6.3-0.9L69.3,44.4z"/>
	</g>
</g>
</svg>
