<?xml version="1.0" encoding="utf-8"?>
<!-- Generator: Adobe Illustrator 25.2.2, SVG Export Plug-In . SVG Version: 6.00 Build 0)  -->
<svg version="1.1" id="Layer_1" xmlns="http://www.w3.org/2000/svg" xmlns:xlink="http://www.w3.org/1999/xlink" x="0px" y="0px"
	 viewBox="0 0 90 90" style="enable-background:new 0 0 90 90;" xml:space="preserve">
<style type="text/css">
	.st0{fill:#E01B22;}
</style>
<path class="st0" d="M86.5,81.5L61.7,57.6c-2.2-2.2-2.7-5.5-1.2-8.1c2.8-4.8,4.3-10.2,4.3-15.7c0-8.6-3.6-16.9-9.9-22.7
	c-6.3-6-14.6-8.9-23.3-8.4C16,3.7,3.5,16.2,2.5,31.8c-0.5,8.7,2.4,17,8.4,23.3c5.9,6.3,14.2,9.9,22.7,9.9c5,0,10.1-1.2,14.5-3.6
	c3-1.6,6.8-1,9.3,1.5l24.4,23.5c0.6,0.6,1.5,0.9,2.3,0.9h0.1c0.9,0,1.8-0.4,2.4-1.1C87.9,84.9,87.9,82.8,86.5,81.5z M50.9,51
	c-5.1,5.1-12.1,7.7-19.3,7.1C19.8,57.2,10.2,47.5,9.2,35.7c-0.6-7.2,2-14.2,7.1-19.3c4.6-4.6,10.8-7.2,17.3-7.2c0.7,0,1.3,0,2,0.1
	C47.4,10.2,57,19.9,58,31.7C58.6,38.9,56,45.9,50.9,51z"/>
</svg>
