<?xml version="1.0" encoding="utf-8"?>
<!-- Generator: Adobe Illustrator 25.2.2, SVG Export Plug-In . SVG Version: 6.00 Build 0)  -->
<svg version="1.1" id="Layer_1" xmlns="http://www.w3.org/2000/svg" xmlns:xlink="http://www.w3.org/1999/xlink" x="0px" y="0px"
	 viewBox="0 0 25 25" style="enable-background:new 0 0 25 25;" xml:space="preserve">
<style type="text/css">
	.st0{fill:#E01A2A;}
	.st1{fill:none;stroke:#231F20;stroke-width:1.2;stroke-miterlimit:10;}
</style>
<path class="st0" d="M20.9,19.9c-1.6-0.9-4.3-2.3-4.4-2.3c0,0-0.1-0.1-0.1-0.1c-1.2,0.4-2.5,0.7-3.9,0.7c-1.4,0-2.7-0.2-3.9-0.6
	c-0.1,0-0.1,0.1-0.2,0.1c0,0-2.8,1.4-4.4,2.3c-0.5,0.3-0.6,1-0.1,1.4c2.4,1.9,5.4,2.9,8.5,2.9c3.1,0,6.1-1,8.5-2.9
	C21.5,21,21.4,20.2,20.9,19.9z"/>
<path class="st1" d="M9.4,12.7c-0.2-0.5-0.5-0.9-0.8-1.4c-0.4-0.6-0.6-1.5-0.6-2.6V5.3c0-2.5,2-4.5,4.5-4.5h0c2.5,0,4.5,2,4.5,4.5
	v3.5c0,1-0.2,2-0.6,2.7c-0.6,1.1-1,2.1-1.1,3.1c-0.3,1.3,0.2,2.4,1.4,3.1c0,0,2.8,1.5,4.4,2.3c0.5,0.3,0.6,1,0.1,1.4
	c-2.4,1.9-5.4,2.9-8.5,2.9c-3.1,0-6.1-1-8.5-2.9c-0.5-0.4-0.4-1.1,0.1-1.4c1.6-0.9,4.4-2.3,4.4-2.3C9.3,17.2,10.9,15.6,9.4,12.7z"/>
</svg>
