<?xml version="1.0" encoding="utf-8"?>
<!-- Generator: Adobe Illustrator 25.2.2, SVG Export Plug-In . SVG Version: 6.00 Build 0)  -->
<svg version="1.1" id="Layer_1" xmlns="http://www.w3.org/2000/svg" xmlns:xlink="http://www.w3.org/1999/xlink" x="0px" y="0px"
	 viewBox="0 0 90 90" style="enable-background:new 0 0 90 90;" xml:space="preserve">
<style type="text/css">
	.st0{fill:#FFFFFF;}
	.st1{fill:#D7D7D7;}
	.st2{fill:#404040;}
	.st3{fill:#231F20;}
	.st4{fill:#E01B22;}
</style>
<g id="XMLID_160_">
	<polyline class="st0" points="30.9,83.3 30.9,33.2 88.1,22.3 88.1,70.7 30.9,83.3 	"/>
</g>
<g id="XMLID_156_">
	<path class="st1" d="M82.2,23.3V61c0,3.9-3.2,7.1-7.1,7.1L31,78v5.2l57.2-12.6V22.3L82.2,23.3z"/>
</g>
<g id="XMLID_154_">
	<path class="st2" d="M30.9,84.2c-0.4,0-0.8-0.3-0.9-0.7c-0.1-0.5,0.2-1,0.7-1.1L87.2,70v-4c0-0.5,0.4-0.9,0.9-0.9S89,65.5,89,66
		v4.7c0,0.4-0.3,0.8-0.7,0.9L31.1,84.2C31.1,84.2,31,84.2,30.9,84.2z"/>
</g>
<g id="XMLID_153_">
	<path class="st2" d="M88.1,63c-0.5,0-0.9-0.4-0.9-0.9V61c0-0.5,0.4-0.9,0.9-0.9S89,60.5,89,61v1.1C89,62.7,88.6,63,88.1,63z"/>
</g>
<g id="XMLID_2_">
	<path class="st3" d="M2,56.2c-0.5,0-0.9-0.4-0.9-0.9v-1.1c0-0.5,0.4-0.9,0.9-0.9s0.9,0.4,0.9,0.9v1.1C2.9,55.8,2.5,56.2,2,56.2z"/>
</g>
<g id="XMLID_152_">
	<path class="st2" d="M30.9,84.2c-0.5,0-0.9-0.4-0.9-0.9V33.2c0-0.4,0.3-0.8,0.7-0.9l57.2-10.7c0.2-0.1,0.5,0,0.7,0.2
		s0.3,0.4,0.3,0.7v34.4c0,0.5-0.4,0.9-0.9,0.9s-0.9-0.4-0.9-0.9V23.6L31.7,34v49.3C31.8,83.8,31.4,84.2,30.9,84.2z"/>
</g>
<g id="XMLID_32_">
	<path class="st2" d="M30.9,84.2c-0.5,0-0.9-0.4-0.9-0.9V33.7L2.9,16.6v33.6c0,0.5-0.4,0.9-0.9,0.9s-0.9-0.4-0.9-0.9V14.9
		c0-0.3,0.2-0.6,0.5-0.8c0.3-0.2,0.6-0.1,0.9,0l28.9,18.2c0.3,0.2,0.4,0.5,0.4,0.8v50.1C31.8,83.8,31.4,84.2,30.9,84.2z"/>
</g>
<g id="XMLID_33_">
	<path class="st3" d="M30.9,84.2c-0.2,0-0.3,0-0.5-0.2L1.5,64.8c-0.3-0.2-0.4-0.4-0.4-0.8v-4.7c0-0.5,0.4-0.9,0.9-0.9
		s0.9,0.4,0.9,0.9v4.2l28.5,18.9c0.4,0.3,0.5,0.8,0.3,1.3C31.5,84,31.2,84.2,30.9,84.2z"/>
</g>
<g id="XMLID_135_">
	<path class="st2" d="M88.1,23.3c-0.1,0-0.3,0-0.4-0.1L54.4,7.6L2.1,15.8c-0.5,0.1-1-0.3-1-0.8c-0.1-0.5,0.3-1,0.8-1l52.6-8.2
		c0.2,0,0.4,0,0.5,0.1l33.5,15.7c0.5,0.2,0.6,0.7,0.4,1.2C88.8,23.2,88.5,23.3,88.1,23.3z"/>
</g>
<g id="XMLID_136_">
	<path class="st2" d="M59.5,28.7c-0.2,0-0.3,0-0.5-0.1L30.4,11.5c-0.4-0.3-0.6-0.8-0.3-1.2s0.8-0.6,1.2-0.3l28.6,17.1
		c0.4,0.3,0.6,0.8,0.3,1.2C60.1,28.5,59.8,28.7,59.5,28.7z"/>
</g>
<g>
	<g>
		<path class="st4" d="M48.9,60.5c0,0,9.6,2.8,15.9-7.5l9.4-2.1c0,0-2.2,6.9-8.2,10.3S53.6,64.8,48.9,60.5z"/>
	</g>
	<g>
		<path class="st2" d="M59.9,64c-6.7,1.2-12.6-1.6-15.1-7.4l-0.4-1l31-5.8L75,51C72.5,57.7,66.6,62.8,59.9,64z M46.8,56.8
			c2.5,4.5,7.5,6.7,13.2,5.7c5.6-1.1,10.7-5.2,13.2-10.6L46.8,56.8z"/>
	</g>
	<g>
		<polygon class="st2" points="67.7,63.3 52.2,66.2 52.2,64.6 67.7,61.7 		"/>
	</g>
	<g>
		<path class="st4" d="M72.7,49.3L72,49.2c-0.1,0-9.3-2.1-5.8-13.1l0.3-0.9l0.8,0.2c0.1,0,9.6,3.1,5.7,13.1L72.7,49.3z M67.4,37.3
			c-1.9,7.1,2.6,9.5,4.4,10.1C73.9,41,69.3,38.2,67.4,37.3z"/>
	</g>
	<g>
		<path class="st4" d="M45.2,55l-0.2-0.7c0-0.1-1.9-7.7,6.7-11.7l0.8-0.4l0.1,0.8c0,0.1,1.3,8.5-6.8,11.7L45.2,55z M51.3,44.5
			c-4.8,2.7-5,6.7-4.8,8.4C50.9,50.7,51.3,46.4,51.3,44.5z"/>
	</g>
	<g>
		<path class="st4" d="M57.6,42.2c-2.4,0.4-5.1,0-7.8-2.5l-0.6-0.6l0.7-0.6c0.1-0.1,8.4-7.1,14.1-0.7l0.5,0.5l-0.6,0.6
			C63.8,38.9,61.2,41.5,57.6,42.2z M51.6,39c4.5,3.6,9,0.7,10.6-0.6C58.4,34.9,53.5,37.6,51.6,39z"/>
	</g>
	<g>
		<path class="st4" d="M56.1,50c-1.5,0.3-2.8-0.7-2.8-2.2c0-1.5,1.2-3,2.8-3.3c1.5-0.3,2.8,0.7,2.8,2.2C58.9,48.2,57.6,49.7,56.1,50
			z M56.1,46c-0.7,0.1-1.2,0.8-1.2,1.4c0,0.7,0.5,1.1,1.2,1c0.7-0.1,1.2-0.8,1.2-1.4C57.3,46.3,56.8,45.9,56.1,46z"/>
	</g>
	<g>
		<path class="st4" d="M67.9,50.7c-0.2,0-5.5-0.3-8.7-6.4l1.4-0.9c2.8,5.4,7.4,5.7,7.6,5.7L67.9,50.7z"/>
	</g>
	<g>
		<path class="st4" d="M63.1,48.5c0-0.1-0.7-2.1-0.1-5.6l1.5,0c-0.6,3,0,4.8,0,4.8L63.1,48.5z"/>
	</g>
	<g>
		<path class="st4" d="M65.8,50.2c0,0-3.1-0.6-6.8,1l-0.4-1.4c4.2-1.9,7.7-1.2,7.8-1.1L65.8,50.2z"/>
	</g>
</g>
</svg>
